# xmcd CD database file
#
# Track frame offsets:
#	150
#	13212
#	27738
#	45446
#	57609
#	77497
#	87009
#	100731
#	110972
#	124189
#	143920
#	163008
#
# Disc length: 2399 seconds
#
# Revision: 1
# Processed by: cddbd v1.4PL0 Copyright (c) Steve Scherf et al.
# Submitted via: CDex 1.50beta9
#
DISCID=a2095d0c
DTITLE=Hermann  - Hau Hau Hau
DYEAR=1900
DGENRE=Blues
TTITLE0=hau hau hau 
TTITLE1=espaniol
TTITLE2=i lieb de no
TTITLE3=geld
TTITLE4=w‰scheblues
TTITLE5=instrumental
TTITLE6=kender der stroﬂ
TTITLE7=anrufbeantworter
TTITLE8=lass mr doch mei ruh
TTITLE9=i ben a mo
TTITLE10=hey lusil
TTITLE11=danke
EXTD=
EXTT0=
EXTT1=
EXTT2=
EXTT3=
EXTT4=
EXTT5=
EXTT6=
EXTT7=
EXTT8=
EXTT9=
EXTT10=
EXTT11=
PLAYORDER=
